<mxfile host="app.diagrams.net" modified="2021-01-08T11:01:31.328Z" agent="5.0 (Windows NT 10.0; Win64; x64) AppleWebKit/537.36 (KHTML, like Gecko) Chrome/87.0.4280.88 Safari/537.36" etag="x1qJsAGQPiaab6HEAw-g" version="14.1.8" type="github">
  <diagram id="b1ZgQ8-a62TIw1XIovw3" name="Page-1">
    <mxGraphModel dx="4736" dy="2230" grid="1" gridSize="10" guides="1" tooltips="1" connect="1" arrows="1" fold="1" page="1" pageScale="1" pageWidth="413" pageHeight="583" math="0" shadow="0">
      <root>
        <mxCell id="0" />
        <mxCell id="1" parent="0" />
        <mxCell id="OXzJDXG7wxLCX0fdr9VW-58" value="" style="rounded=0;whiteSpace=wrap;html=1;strokeColor=#36393d;fillColor=#D4E1F5;" vertex="1" parent="1">
          <mxGeometry x="-793" y="30" width="1580" height="1110" as="geometry" />
        </mxCell>
        <mxCell id="OXzJDXG7wxLCX0fdr9VW-26" style="edgeStyle=orthogonalEdgeStyle;rounded=0;orthogonalLoop=1;jettySize=auto;html=1;" edge="1" parent="1" source="OXzJDXG7wxLCX0fdr9VW-1">
          <mxGeometry relative="1" as="geometry">
            <mxPoint x="60" y="470" as="targetPoint" />
            <Array as="points">
              <mxPoint x="60" y="280" />
            </Array>
          </mxGeometry>
        </mxCell>
        <mxCell id="OXzJDXG7wxLCX0fdr9VW-39" style="edgeStyle=orthogonalEdgeStyle;rounded=0;orthogonalLoop=1;jettySize=auto;html=1;" edge="1" parent="1" source="OXzJDXG7wxLCX0fdr9VW-1">
          <mxGeometry relative="1" as="geometry">
            <mxPoint x="289.99999999999955" y="750" as="targetPoint" />
            <mxPoint x="797" y="400" as="sourcePoint" />
            <Array as="points">
              <mxPoint x="730" y="480" />
              <mxPoint x="290" y="480" />
            </Array>
          </mxGeometry>
        </mxCell>
        <mxCell id="OXzJDXG7wxLCX0fdr9VW-1" value="&lt;font style=&quot;font-size: 22px&quot;&gt;Admin&lt;/font&gt;" style="shape=umlActor;verticalLabelPosition=bottom;verticalAlign=top;html=1;outlineConnect=0;fillColor=#fad7ac;strokeColor=#b46504;" vertex="1" parent="1">
          <mxGeometry x="690" y="200" width="80" height="160" as="geometry" />
        </mxCell>
        <mxCell id="OXzJDXG7wxLCX0fdr9VW-30" style="edgeStyle=orthogonalEdgeStyle;rounded=0;orthogonalLoop=1;jettySize=auto;html=1;entryX=0;entryY=0.5;entryDx=0;entryDy=0;" edge="1" parent="1" source="OXzJDXG7wxLCX0fdr9VW-3" target="OXzJDXG7wxLCX0fdr9VW-13">
          <mxGeometry relative="1" as="geometry">
            <mxPoint x="-470" y="390" as="targetPoint" />
            <Array as="points">
              <mxPoint x="-565" y="320" />
              <mxPoint x="-565" y="390" />
            </Array>
          </mxGeometry>
        </mxCell>
        <mxCell id="OXzJDXG7wxLCX0fdr9VW-40" style="edgeStyle=orthogonalEdgeStyle;rounded=0;orthogonalLoop=1;jettySize=auto;html=1;" edge="1" parent="1" source="OXzJDXG7wxLCX0fdr9VW-3">
          <mxGeometry relative="1" as="geometry">
            <mxPoint x="11" y="470" as="targetPoint" />
          </mxGeometry>
        </mxCell>
        <mxCell id="OXzJDXG7wxLCX0fdr9VW-71" style="edgeStyle=orthogonalEdgeStyle;rounded=0;orthogonalLoop=1;jettySize=auto;html=1;" edge="1" parent="1" source="OXzJDXG7wxLCX0fdr9VW-3" target="OXzJDXG7wxLCX0fdr9VW-12">
          <mxGeometry relative="1" as="geometry">
            <Array as="points">
              <mxPoint x="-230" y="240" />
              <mxPoint x="-230" y="240" />
            </Array>
          </mxGeometry>
        </mxCell>
        <mxCell id="OXzJDXG7wxLCX0fdr9VW-3" value="&lt;font style=&quot;font-size: 20px&quot; color=&quot;#000000&quot;&gt;Client&lt;/font&gt;" style="shape=umlActor;verticalLabelPosition=bottom;verticalAlign=top;html=1;outlineConnect=0;fillColor=#e51400;strokeColor=#B20000;fontColor=#ffffff;" vertex="1" parent="1">
          <mxGeometry x="-760" y="200" width="90" height="160" as="geometry" />
        </mxCell>
        <mxCell id="OXzJDXG7wxLCX0fdr9VW-32" style="edgeStyle=orthogonalEdgeStyle;rounded=0;orthogonalLoop=1;jettySize=auto;html=1;entryX=0.5;entryY=1;entryDx=0;entryDy=0;" edge="1" parent="1" source="OXzJDXG7wxLCX0fdr9VW-4" target="OXzJDXG7wxLCX0fdr9VW-15">
          <mxGeometry relative="1" as="geometry" />
        </mxCell>
        <mxCell id="OXzJDXG7wxLCX0fdr9VW-34" style="edgeStyle=orthogonalEdgeStyle;rounded=0;orthogonalLoop=1;jettySize=auto;html=1;entryX=0.471;entryY=1;entryDx=0;entryDy=0;entryPerimeter=0;" edge="1" parent="1" target="OXzJDXG7wxLCX0fdr9VW-17">
          <mxGeometry relative="1" as="geometry">
            <mxPoint x="-668" y="970" as="sourcePoint" />
            <mxPoint x="70" y="1040" as="targetPoint" />
            <Array as="points">
              <mxPoint x="-200" y="970" />
              <mxPoint x="-200" y="1110" />
              <mxPoint x="70" y="1110" />
            </Array>
          </mxGeometry>
        </mxCell>
        <mxCell id="OXzJDXG7wxLCX0fdr9VW-35" style="edgeStyle=orthogonalEdgeStyle;rounded=0;orthogonalLoop=1;jettySize=auto;html=1;entryX=0.5;entryY=1;entryDx=0;entryDy=0;" edge="1" parent="1" source="OXzJDXG7wxLCX0fdr9VW-4" target="OXzJDXG7wxLCX0fdr9VW-14">
          <mxGeometry relative="1" as="geometry">
            <Array as="points">
              <mxPoint x="590" y="910" />
            </Array>
          </mxGeometry>
        </mxCell>
        <mxCell id="OXzJDXG7wxLCX0fdr9VW-37" style="edgeStyle=orthogonalEdgeStyle;rounded=0;orthogonalLoop=1;jettySize=auto;html=1;entryX=0;entryY=0.5;entryDx=0;entryDy=0;" edge="1" parent="1" target="OXzJDXG7wxLCX0fdr9VW-11">
          <mxGeometry relative="1" as="geometry">
            <mxPoint x="-620" y="800" as="sourcePoint" />
            <Array as="points">
              <mxPoint x="-190" y="800" />
              <mxPoint x="-190" y="400" />
            </Array>
          </mxGeometry>
        </mxCell>
        <mxCell id="OXzJDXG7wxLCX0fdr9VW-38" style="edgeStyle=orthogonalEdgeStyle;rounded=0;orthogonalLoop=1;jettySize=auto;html=1;" edge="1" parent="1" source="OXzJDXG7wxLCX0fdr9VW-4">
          <mxGeometry relative="1" as="geometry">
            <mxPoint x="-100" y="540" as="targetPoint" />
            <Array as="points">
              <mxPoint x="-668" y="540" />
            </Array>
          </mxGeometry>
        </mxCell>
        <mxCell id="OXzJDXG7wxLCX0fdr9VW-4" value="&lt;span style=&quot;font-size: 23px&quot;&gt;&lt;font color=&quot;#000000&quot;&gt;Agent de vente&lt;/font&gt;&lt;br&gt;&lt;/span&gt;" style="shape=umlActor;verticalLabelPosition=bottom;verticalAlign=top;html=1;outlineConnect=0;fillColor=#647687;strokeColor=#314354;fontColor=#ffffff;" vertex="1" parent="1">
          <mxGeometry x="-710" y="770" width="85" height="160" as="geometry" />
        </mxCell>
        <mxCell id="OXzJDXG7wxLCX0fdr9VW-27" style="edgeStyle=orthogonalEdgeStyle;rounded=0;orthogonalLoop=1;jettySize=auto;html=1;entryX=1;entryY=0.5;entryDx=0;entryDy=0;" edge="1" parent="1" source="OXzJDXG7wxLCX0fdr9VW-5" target="OXzJDXG7wxLCX0fdr9VW-9">
          <mxGeometry relative="1" as="geometry">
            <mxPoint x="190" y="540" as="targetPoint" />
            <Array as="points">
              <mxPoint x="699" y="700" />
              <mxPoint x="415" y="700" />
              <mxPoint x="415" y="540" />
            </Array>
          </mxGeometry>
        </mxCell>
        <mxCell id="OXzJDXG7wxLCX0fdr9VW-36" style="edgeStyle=orthogonalEdgeStyle;rounded=0;orthogonalLoop=1;jettySize=auto;html=1;entryX=0.528;entryY=0.989;entryDx=0;entryDy=0;entryPerimeter=0;" edge="1" parent="1" source="OXzJDXG7wxLCX0fdr9VW-5" target="OXzJDXG7wxLCX0fdr9VW-17">
          <mxGeometry relative="1" as="geometry">
            <mxPoint x="740" y="970" as="sourcePoint" />
            <mxPoint x="90" y="1050" as="targetPoint" />
            <Array as="points">
              <mxPoint x="700" y="1110" />
              <mxPoint x="90" y="1110" />
            </Array>
          </mxGeometry>
        </mxCell>
        <mxCell id="OXzJDXG7wxLCX0fdr9VW-5" value="&lt;font style=&quot;font-size: 23px&quot; color=&quot;#000000&quot;&gt;Agent de Rayon&lt;/font&gt;" style="shape=umlActor;verticalLabelPosition=bottom;verticalAlign=top;html=1;outlineConnect=0;fillColor=#647687;strokeColor=#314354;fontColor=#ffffff;" vertex="1" parent="1">
          <mxGeometry x="650" y="795" width="97" height="145" as="geometry" />
        </mxCell>
        <mxCell id="OXzJDXG7wxLCX0fdr9VW-9" value="&lt;font style=&quot;font-size: 20px&quot;&gt;Identifier ou CrÃ©er un compte&lt;/font&gt;" style="ellipse;whiteSpace=wrap;html=1;fillColor=#f8cecc;strokeColor=#b85450;gradientColor=#ea6b66;" vertex="1" parent="1">
          <mxGeometry x="-90" y="470" width="270" height="140" as="geometry" />
        </mxCell>
        <mxCell id="OXzJDXG7wxLCX0fdr9VW-11" value="&lt;font style=&quot;font-size: 20px&quot;&gt;Gestion De produit&lt;/font&gt;" style="ellipse;whiteSpace=wrap;html=1;fillColor=#d5e8d4;strokeColor=#82b366;gradientColor=#97d077;" vertex="1" parent="1">
          <mxGeometry x="410" y="370" width="190" height="60" as="geometry" />
        </mxCell>
        <mxCell id="OXzJDXG7wxLCX0fdr9VW-12" value="&lt;font style=&quot;font-size: 21px&quot;&gt;Payement&lt;br&gt;Card&amp;nbsp; /&amp;nbsp; Livraison&lt;/font&gt;" style="ellipse;whiteSpace=wrap;html=1;fillColor=#fff2cc;strokeColor=#d6b656;gradientColor=#ffd966;" vertex="1" parent="1">
          <mxGeometry x="-90" y="200" width="260" height="70" as="geometry" />
        </mxCell>
        <mxCell id="OXzJDXG7wxLCX0fdr9VW-13" value="&lt;font style=&quot;font-size: 18px&quot;&gt;Passer un Produit&lt;br&gt;ou&amp;nbsp;&lt;br&gt;Ajouter / Annuler&lt;/font&gt;" style="ellipse;whiteSpace=wrap;html=1;fillColor=#fff2cc;strokeColor=#d6b656;gradientColor=#ffd966;" vertex="1" parent="1">
          <mxGeometry x="-460" y="350" width="230" height="80" as="geometry" />
        </mxCell>
        <mxCell id="OXzJDXG7wxLCX0fdr9VW-14" value="&lt;font style=&quot;font-size: 20px&quot;&gt;Verification De Vente&lt;/font&gt;" style="ellipse;whiteSpace=wrap;html=1;gradientColor=#97d077;fillColor=#d5e8d4;strokeColor=#82b366;" vertex="1" parent="1">
          <mxGeometry x="480" y="510" width="220" height="60" as="geometry" />
        </mxCell>
        <mxCell id="OXzJDXG7wxLCX0fdr9VW-15" value="&lt;font style=&quot;font-size: 21px&quot;&gt;Visualisation De Stock&lt;/font&gt;" style="ellipse;whiteSpace=wrap;html=1;gradientColor=#97d077;fillColor=#d5e8d4;strokeColor=#82b366;" vertex="1" parent="1">
          <mxGeometry x="-80" y="690" width="270" height="80" as="geometry" />
        </mxCell>
        <mxCell id="OXzJDXG7wxLCX0fdr9VW-17" value="&lt;font style=&quot;font-size: 20px&quot;&gt;les produits nâayant pas atteint lâobjectif de vente mensuel&lt;/font&gt;" style="ellipse;whiteSpace=wrap;html=1;gradientColor=#97d077;fillColor=#d5e8d4;strokeColor=#82b366;" vertex="1" parent="1">
          <mxGeometry x="-90" y="940" width="340" height="90" as="geometry" />
        </mxCell>
        <mxCell id="OXzJDXG7wxLCX0fdr9VW-19" value="&lt;font style=&quot;font-size: 20px&quot;&gt;la gÃ©rance des Comptes&lt;/font&gt;" style="ellipse;whiteSpace=wrap;html=1;fillColor=#e6d0de;strokeColor=#996185;gradientColor=#B5739D;" vertex="1" parent="1">
          <mxGeometry x="180" y="750" width="230" height="70" as="geometry" />
        </mxCell>
        <mxCell id="OXzJDXG7wxLCX0fdr9VW-53" style="edgeStyle=orthogonalEdgeStyle;rounded=0;orthogonalLoop=1;jettySize=auto;html=1;exitX=0.5;exitY=1;exitDx=0;exitDy=0;dashed=1;" edge="1" parent="1">
          <mxGeometry relative="1" as="geometry">
            <mxPoint x="-590" y="1290" as="sourcePoint" />
            <mxPoint x="-590" y="1290" as="targetPoint" />
          </mxGeometry>
        </mxCell>
        <mxCell id="OXzJDXG7wxLCX0fdr9VW-54" style="edgeStyle=orthogonalEdgeStyle;rounded=0;orthogonalLoop=1;jettySize=auto;html=1;exitX=0.5;exitY=1;exitDx=0;exitDy=0;dashed=1;" edge="1" parent="1">
          <mxGeometry relative="1" as="geometry">
            <mxPoint x="-590" y="1290" as="sourcePoint" />
            <mxPoint x="-590" y="1290" as="targetPoint" />
          </mxGeometry>
        </mxCell>
        <mxCell id="OXzJDXG7wxLCX0fdr9VW-60" value="&lt;h1 class=&quot;ekeyz-0 sc-1ehear7-3 WOjAc&quot;&gt;one-bleach.uni&lt;/h1&gt;" style="shape=hexagon;perimeter=hexagonPerimeter2;whiteSpace=wrap;html=1;fixedSize=1;fillColor=#f5f5f5;strokeColor=#666666;gradientColor=#00CCCC;" vertex="1" parent="1">
          <mxGeometry x="-105" y="40" width="300" height="80" as="geometry" />
        </mxCell>
        <mxCell id="OXzJDXG7wxLCX0fdr9VW-86" value="" style="endArrow=classic;html=1;" edge="1" parent="1">
          <mxGeometry width="50" height="50" relative="1" as="geometry">
            <mxPoint x="-670" y="1085.67" as="sourcePoint" />
            <mxPoint x="-580" y="1085.67" as="targetPoint" />
          </mxGeometry>
        </mxCell>
        <mxCell id="OXzJDXG7wxLCX0fdr9VW-87" value="" style="rounded=0;whiteSpace=wrap;html=1;fillColor=#f5f5f5;strokeColor=#666666;gradientColor=#b3b3b3;" vertex="1" parent="1">
          <mxGeometry x="-700" y="1001.34" width="200" height="120" as="geometry" />
        </mxCell>
        <mxCell id="OXzJDXG7wxLCX0fdr9VW-88" value="" style="endArrow=classic;html=1;" edge="1" parent="1">
          <mxGeometry width="50" height="50" relative="1" as="geometry">
            <mxPoint x="-700" y="1042.3400000000001" as="sourcePoint" />
            <mxPoint x="-610" y="1042.3400000000001" as="targetPoint" />
          </mxGeometry>
        </mxCell>
        <mxCell id="OXzJDXG7wxLCX0fdr9VW-89" value="&lt;font style=&quot;font-size: 18px&quot;&gt;Include&lt;/font&gt;" style="text;html=1;strokeColor=none;fillColor=none;align=center;verticalAlign=middle;whiteSpace=wrap;rounded=0;" vertex="1" parent="1">
          <mxGeometry x="-570" y="1032.3400000000001" width="40" height="20" as="geometry" />
        </mxCell>
        <mxCell id="OXzJDXG7wxLCX0fdr9VW-90" value="" style="endArrow=classic;html=1;dashed=1;" edge="1" parent="1">
          <mxGeometry width="50" height="50" relative="1" as="geometry">
            <mxPoint x="-700" y="1082.3400000000001" as="sourcePoint" />
            <mxPoint x="-610" y="1082.3400000000001" as="targetPoint" />
          </mxGeometry>
        </mxCell>
        <mxCell id="OXzJDXG7wxLCX0fdr9VW-91" value="&lt;font style=&quot;font-size: 18px&quot;&gt;Extend&lt;/font&gt;" style="text;html=1;strokeColor=none;fillColor=none;align=center;verticalAlign=middle;whiteSpace=wrap;rounded=0;" vertex="1" parent="1">
          <mxGeometry x="-570" y="1062.3400000000001" width="40" height="20" as="geometry" />
        </mxCell>
        <mxCell id="OXzJDXG7wxLCX0fdr9VW-92" style="edgeStyle=orthogonalEdgeStyle;rounded=0;orthogonalLoop=1;jettySize=auto;html=1;exitX=0.5;exitY=1;exitDx=0;exitDy=0;dashed=1;" edge="1" parent="1">
          <mxGeometry relative="1" as="geometry">
            <mxPoint x="-610" y="1122.3400000000001" as="sourcePoint" />
            <mxPoint x="-610" y="1122.3400000000001" as="targetPoint" />
          </mxGeometry>
        </mxCell>
        <mxCell id="OXzJDXG7wxLCX0fdr9VW-93" style="edgeStyle=orthogonalEdgeStyle;rounded=0;orthogonalLoop=1;jettySize=auto;html=1;exitX=0.5;exitY=1;exitDx=0;exitDy=0;dashed=1;" edge="1" parent="1">
          <mxGeometry relative="1" as="geometry">
            <mxPoint x="-610" y="1122.3400000000001" as="sourcePoint" />
            <mxPoint x="-610" y="1122.3400000000001" as="targetPoint" />
          </mxGeometry>
        </mxCell>
      </root>
    </mxGraphModel>
  </diagram>
</mxfile>
